PathFileType	4	(X/Y/Z)	C:/Users/opensim2020/Desktop/walking_exp_matlab/subject01_walking15_straight_04.trc	
DataRate	CameraRate	NumFrames	NumMarkers	Units	OrigDataRate	OrigDataStartFrame	OrigNumFrames	
100.00	100.00	7	43	mm	100.00	2107	105	
Frame#	Time	LFHD			RFHD			LBHD			RBHD			C7			T10			CLAV			STRN			RBAK			LSHO			LUPA			LELB			LFRM			LWRA			LWRB			LFIN			RSHO			RUPA			RELB			RFRM			RWRA			RWRB			RFIN			LASI			RASI			LPSI			RPSI			LTHI			LKNE			LTIB			LANK			LHEE			LTOE			RTHI			RKNE			RTIB			RANK			RHEE			RTOE			*39			*40			*41			*42			
		X1	Y1	Z1	X2	Y2	Z2	X3	Y3	Z3	X4	Y4	Z4	X5	Y5	Z5	X6	Y6	Z6	X7	Y7	Z7	X8	Y8	Z8	X9	Y9	Z9	X10	Y10	Z10	X11	Y11	Z11	X12	Y12	Z12	X13	Y13	Z13	X14	Y14	Z14	X15	Y15	Z15	X16	Y16	Z16	X17	Y17	Z17	X18	Y18	Z18	X19	Y19	Z19	X20	Y20	Z20	X21	Y21	Z21	X22	Y22	Z22	X23	Y23	Z23	X24	Y24	Z24	X25	Y25	Z25	X26	Y26	Z26	X27	Y27	Z27	X28	Y28	Z28	X29	Y29	Z29	X30	Y30	Z30	X31	Y31	Z31	X32	Y32	Z32	X33	Y33	Z33	X34	Y34	Z34	X35	Y35	Z35	X36	Y36	Z36	X37	Y37	Z37	X38	Y38	Z38	X39	Y39	Z39	X40	Y40	Z40	X41	Y41	Z41	X42	Y42	Z42	X43	Y43	Z43	

27	0.260	-948.94659	484.19974	1645.26746	-1057.03955	448.78207	1659.22144	-983.82666	597.56012	1609.48303	-1098.10181	563.80737	1623.14587	-1031.96631	634.96356	1418.77429	-1060.14539	685.12213	1128.35828	-1034.71545	491.40042	1347.85352	-1039.92993	453.58954	1191.90503	-1122.32715	698.37042	1234.82727	-872.60931	554.96399	1373.14844	-798.22528	610.66870	1189.57837	-809.41473	652.43054	1048.92493	-783.57098	653.27533	937.34332	-794.59265	617.71155	800.71393	-778.37225	672.94336	816.53784	-760.61005	656.55237	736.56268	-1184.25745	553.68811	1390.76501	-1294.97522	631.10095	1205.57532	-1306.29797	632.04596	1076.16211	-1332.16040	563.58557	971.44153	-1308.84436	445.41995	898.96509	-1345.21655	484.20279	878.96130	-1352.04187	415.36188	831.88654	-965.16608	509.83969	924.61047	-1181.24060	523.17853	915.31012	-1004.74591	698.11646	930.83777	-1148.61487	704.99731	926.44397	-909.74176	472.99808	600.95837	-934.80219	452.05518	469.82477	-930.43951	500.43503	285.92218	-990.92767	538.47772	74.32541	-1043.74768	584.66278	45.73728	-985.08069	392.88483	37.49162	-1256.44202	574.73346	578.84711	-1251.32776	573.83759	420.21970	-1257.34387	732.55426	345.45868	-1211.66077	906.91315	238.36525	-1152.48694	953.61890	257.46936	-1226.71143	897.93677	94.30289	-1033.05444	463.13620	1691.45032	-3101.87891	1973.12134	1023.58167	-3140.67993	2012.51111	1022.01697			 
28	0.270	-947.50525	469.95639	1646.55627	-1055.54126	434.31900	1660.60828	-982.63348	583.42706	1611.25220	-1096.65698	549.36993	1624.96741	-1030.97607	621.02637	1420.43665	-1058.91907	671.72076	1130.15540	-1034.07129	477.66827	1349.49084	-1039.26172	439.96756	1193.46973	-1120.73730	684.72534	1236.29993	-871.80286	540.95038	1374.64746	-797.56573	594.66541	1190.61316	-808.69977	634.80701	1048.97253	-783.36829	632.94025	937.17017	-795.46051	594.33759	801.51508	-778.55084	649.79364	815.96680	-761.32410	631.24481	736.42053	-1183.61853	540.27307	1392.43030	-1293.94861	617.99994	1207.13623	-1305.06409	618.94995	1077.36450	-1330.97754	554.30219	970.39868	-1307.43457	438.80569	893.46381	-1344.43713	478.04117	875.18250	-1350.29150	411.24454	825.24054	-964.13721	496.81641	925.81165	-1180.21130	509.58209	917.60480	-1004.38501	685.04578	932.73682	-1148.33472	691.14685	928.24408	-908.78644	465.62189	600.37781	-933.75763	446.00378	468.90128	-929.80042	497.26102	285.26901	-990.96210	537.50464	74.14766	-1043.79736	584.43945	46.31441	-984.72028	392.39520	36.75951	-1255.49231	553.14490	581.23474	-1250.81372	547.37946	423.22873	-1254.51794	705.58832	346.91708	-1208.12756	878.70526	238.80405	-1148.92078	926.62842	256.36624	-1223.78821	864.85901	95.05002	-1031.52246	448.51813	1692.85645	-3101.95068	1973.03381	1023.60834	-3140.67676	2012.52600	1022.07623			 
29	0.280	-946.24915	455.81876	1647.97290	-1054.15588	419.88440	1661.98169	-981.65875	569.26007	1613.05249	-1096.02356	534.95026	1626.90808	-1030.10437	607.20459	1422.09570	-1057.64978	658.41260	1131.99866	-1033.31458	463.93710	1351.16101	-1038.53381	426.41199	1195.09753	-1119.31360	671.17310	1237.99402	-871.07605	527.14429	1376.34680	-796.97296	578.75372	1192.00415	-807.92957	617.17499	1049.21887	-783.16602	612.27692	937.24677	-796.37482	570.29596	802.73981	-778.75720	625.91071	815.54553	-762.15955	604.86316	736.41260	-1182.64575	526.79120	1393.95764	-1292.95081	605.04523	1208.77649	-1303.74084	606.19910	1078.79688	-1329.95520	545.35010	969.66095	-1306.15808	432.98615	888.03564	-1343.68396	472.53259	871.66992	-1349.03784	407.81149	818.78412	-962.92273	483.98734	927.14313	-1179.12439	496.00558	919.88104	-1004.15521	672.08795	934.56500	-1148.19165	677.17291	930.37549	-908.03314	458.24911	599.73853	-932.94751	440.35596	467.55942	-929.30548	494.41071	284.81955	-990.70056	537.40057	74.51349	-1043.80518	584.14935	46.98095	-984.45166	392.14761	36.54981	-1254.57605	531.64240	583.93048	-1250.05652	521.27020	426.48248	-1251.65283	678.67145	348.29639	-1204.66846	849.73645	237.41241	-1145.48145	898.93933	253.01463	-1219.69519	829.83832	94.69917	-1030.20520	433.99054	1694.21838	-3101.87109	1973.14331	1023.44244	-3140.68042	2012.52893	1022.04871			 
30	0.290	-945.13599	441.67133	1649.34705	-1052.99512	405.41431	1663.27454	-980.88068	555.19055	1614.83228	-1094.59607	520.53564	1628.45276	-1029.29297	593.57056	1423.74268	-1056.44299	645.09027	1133.83899	-1032.60205	450.29645	1352.76672	-1037.71533	412.98611	1196.64673	-1118.17444	657.65692	1239.76733	-870.36243	513.34106	1378.11560	-796.36261	563.16016	1193.53223	-806.99194	599.61322	1049.83972	-782.88141	591.32397	937.52356	-797.31616	545.79974	804.43469	-778.90906	601.60559	815.52869	-762.96082	577.95496	737.00201	-1181.73413	513.20837	1395.46375	-1291.68250	592.28589	1210.35339	-1302.24548	593.76343	1080.36340	-1329.08862	536.79712	969.19928	-1305.17932	427.62195	882.97400	-1343.17932	467.48581	868.44519	-1347.82971	405.09125	812.59412	-961.54565	471.26672	928.48792	-1177.76904	482.50681	921.99219	-1004.06219	659.23169	936.26727	-1148.29895	663.36664	932.76160	-907.86182	451.32449	599.06042	-932.30090	434.97003	466.16745	-929.21027	491.29022	284.38269	-990.74866	536.71417	74.82166	-1043.87964	583.92352	47.73701	-984.32849	391.83200	36.46873	-1253.87952	510.21616	586.66998	-1249.06555	495.29248	429.57193	-1248.97302	651.50159	349.54559	-1201.30994	820.04321	234.52750	-1142.82629	870.76331	248.84976	-1215.43164	792.72009	93.68954	-1029.13733	419.56924	1695.55334	-3101.94800	1973.19080	1023.43170	-3140.78271	2012.49890	1022.00293			 
31	0.300	-944.29590	427.51071	1650.67871	-1052.03589	390.98596	1664.46423	-980.31128	541.09332	1616.53369	-1094.05029	506.11316	1630.00305	-1028.48120	579.78687	1425.34656	-1055.38477	631.79205	1135.59143	-1031.71460	436.69962	1354.27991	-1036.72668	399.60559	1198.06421	-1117.31665	644.28564	1241.59033	-869.62970	499.67496	1379.93823	-795.71899	547.47522	1195.07397	-805.95465	582.00354	1050.39172	-782.48456	570.27625	938.08942	-798.20459	520.87122	806.56262	-779.13953	576.74335	815.79224	-763.87189	550.35419	738.15479	-1180.95886	499.55853	1396.81433	-1290.44788	579.51410	1211.79395	-1300.63770	581.62335	1081.96301	-1328.42102	528.71143	969.07025	-1304.47705	422.74179	878.09131	-1343.04199	462.89880	865.76825	-1347.04663	403.17114	806.81036	-960.13507	459.23508	929.36249	-1176.17761	469.07758	923.92285	-1004.10071	646.42493	937.89441	-1148.49255	649.40363	935.12634	-907.64868	443.60748	598.53601	-931.96173	429.83478	465.16745	-929.30005	487.99219	284.21677	-990.80304	535.98877	75.24230	-1044.08447	583.46844	48.43535	-984.13861	391.56067	36.30341	-1252.91431	489.06473	589.41779	-1247.94800	469.91809	432.99811	-1246.47205	624.34845	350.62268	-1197.97827	789.49500	230.22273	-1140.20251	841.81024	242.65990	-1210.47559	754.78113	90.99488	-1028.17078	405.09729	1696.72180	-3101.94189	1973.21362	1023.48834	-3140.75830	2012.45337	1021.97034			 
32	0.310	-943.40869	413.35217	1652.11768	-1051.30786	376.51917	1665.51770	-979.87823	526.99695	1618.17627	-1093.55847	491.67099	1631.40002	-1027.69568	566.12091	1426.84802	-1054.37415	618.50916	1137.19946	-1030.90747	423.14594	1355.65515	-1035.66565	386.19812	1199.29248	-1116.62476	630.87756	1243.33838	-868.85535	486.07040	1381.74634	-794.92853	531.83630	1196.67969	-804.87646	564.44006	1050.94141	-782.14545	549.18036	938.85352	-799.06903	495.51581	809.14661	-779.11902	551.48724	816.41669	-764.73566	522.11829	739.68109	-1180.24158	485.91171	1398.13440	-1289.20300	566.72119	1213.13367	-1298.98242	569.64117	1083.51819	-1327.68384	520.82867	969.18158	-1304.12207	418.33893	873.55206	-1343.11560	458.71967	863.25391	-1346.72009	401.52689	801.39374	-958.44000	446.04492	930.87970	-1174.51636	455.65396	925.81610	-1004.21448	633.60748	939.43219	-1148.70923	635.65784	937.40845	-907.61243	435.80865	598.23639	-931.98279	424.92178	464.58829	-929.44684	484.91220	284.32257	-990.97217	535.31616	75.83083	-1044.36938	583.06433	49.26438	-984.34625	391.33783	36.20700	-1251.86560	468.03833	592.11407	-1246.80896	444.81204	436.45712	-1244.03015	597.06073	351.21652	-1195.15894	758.54584	224.89865	-1137.61682	812.03101	234.75186	-1205.69312	715.59509	87.72601	-1027.45374	390.61011	1697.87903	-3101.87109	1973.17957	1023.72266	-3140.66748	2012.53076	1022.16589			 
33	0.320	-942.98560	399.32318	1653.12866	-1050.67578	362.09912	1666.36877	-979.56134	512.93799	1619.71887	-1094.04688	477.22281	1632.88196	-1026.91870	552.54108	1428.30347	-1053.46497	605.27600	1138.66748	-1030.07117	409.66885	1356.90955	-1034.59998	372.82343	1200.49573	-1116.00281	617.55719	1244.94421	-868.06927	472.50418	1383.49670	-793.96887	516.33685	1198.32397	-803.65430	547.12299	1051.66919	-781.70624	528.02228	939.72565	-799.84033	469.76944	812.25128	-779.51624	525.84900	817.20398	-765.59656	493.41818	741.67560	-1179.18079	472.22845	1399.15320	-1287.97852	553.90344	1214.25500	-1297.33594	557.81708	1084.98828	-1326.97388	513.01874	969.24646	-1304.05615	414.31534	869.25488	-1343.26270	455.00583	861.10394	-1346.57227	400.56186	796.20795	-956.83362	433.34433	931.95300	-1172.86694	442.16599	927.58600	-1004.36285	620.76697	940.81598	-1148.93726	621.90448	939.43207	-907.75500	428.10095	598.17188	-932.14142	420.24417	464.30731	-929.61902	482.18698	284.58405	-991.09918	535.14349	76.32286	-1044.38586	582.90167	50.14731	-984.24408	391.32642	36.15789	-1251.01868	447.29144	594.98083	-1245.49915	420.17191	439.96213	-1241.76721	569.81726	350.93796	-1192.23914	726.48950	218.20164	-1135.18823	780.89923	225.43126	-1201.37463	675.40991	84.31708	-1026.87109	376.15146	1698.87439	-3101.91187	1973.14319	1023.30688	-3140.75562	2012.50854	1022.11438			 
